<?xml version="1.0" encoding="UTF-8" standalone="no" ?>
<!DOCTYPE svg PUBLIC "-//W3C//DTD SVG 1.1//EN" "http://www.w3.org/Graphics/SVG/1.1/DTD/svg11.dtd">
<svg xmlns="http://www.w3.org/2000/svg" xmlns:xlink="http://www.w3.org/1999/xlink" version="1.1" width="1080" height="1080" viewBox="-470 250 1080 1080" xml:space="preserve">
<desc>Created with Fabric.js 5.2.4</desc>
<defs>
</defs>
<rect x="0" y="0" width="100%" height="100%" fill="transparent"></rect>
<g transform="matrix(1 0 0 1 540 540)" id="512a0a52-bc21-45d5-8fe7-fc56afe13896"  >
<rect style="stroke: none; stroke-width: 1; stroke-dasharray: none; stroke-linecap: butt; stroke-dashoffset: 0; stroke-linejoin: miter; stroke-miterlimit: 4; fill: rgb(255,255,255); fill-rule: nonzero; opacity: 1; visibility: hidden;" vector-effect="non-scaling-stroke"  x="-540" y="-540" rx="0" ry="0" width="1080" height="1080" />
</g>
<g transform="matrix(Infinity NaN NaN Infinity 0 0)" id="b27beef0-7499-470e-8a6a-dc5ac1a4043e"  >
</g>
<g transform="matrix(0.1 0 0 0.1 68.76 791.25)" id="ca14a3ae-6edc-49fc-9851-781fa89d30ff"  >
<path style="stroke: rgb(0, 255, 153); stroke-width: 0; stroke-dasharray: none; stroke-linecap: butt; stroke-dashoffset: 0; stroke-linejoin: miter; stroke-miterlimit: 4; fill: rgb(0, 255, 153); fill-rule: nonzero; opacity: 1;" vector-effect="non-scaling-stroke"  transform=" translate(-5400.92, -5398.64)" d="M 5075 10669 C 4033 10610 2977 10204 2150 9545 C 1326 8888 729 8025 405 7020 C 36 5872 71 4621 505 3495 C 1043 2097 2136 1003 3530 467 C 4578 64 5721 10 6800 312 C 8065 665 9137 1466 9841 2585 C 9945 2750 10023 2892 10129 3110 C 10793 4481 10824 6101 10213 7509 C 9720 8646 8840 9576 7735 10127 C 6907 10540 6016 10722 5075 10669 z M 5330 9619 C 6066 9552 6793 9152 7258 8557 C 7445 8317 7567 8103 7676 7824 C 7896 7254 7922 6604 7748 6016 C 7694 5831 7541 5476 7517 5477 C 7508 5478 6970 5889 6970 5895 C 6970 5897 6985 5934 7004 5978 C 7132 6278 7193 6628 7171 6941 C 7148 7261 7079 7518 6944 7782 C 6627 8401 6040 8822 5350 8926 C 5180 8952 4886 8949 4715 8921 C 4355 8861 4033 8724 3748 8509 C 3636 8425 3419 8206 3337 8095 C 2993 7629 2854 7080 2937 6505 C 3023 5902 3363 5372 3885 5027 C 3982 4963 4175 4864 4271 4829 L 4330 4807 L 4330 4449 L 4330 4091 L 4263 4110 C 3560 4307 2934 4809 2571 5466 C 2229 6084 2137 6833 2316 7529 C 2493 8214 2964 8848 3569 9215 C 4109 9543 4692 9677 5330 9619 z M 5320 8191 C 5803 8093 6204 7744 6369 7277 C 6425 7118 6443 7005 6443 6815 C 6444 6639 6436 6586 6389 6424 L 6368 6352 L 6229 6459 L 6090 6565 L 6096 6605 C 6123 6791 6117 6939 6075 7098 C 5998 7389 5795 7636 5517 7776 C 5285 7894 4953 7914 4694 7826 C 4501 7761 4314 7625 4189 7461 C 4126 7378 4038 7199 4011 7100 C 3949 6873 3967 6620 4060 6397 C 4100 6301 4192 6162 4269 6082 L 4330 6019 L 4330 5819 C 4330 5710 4328 5620 4325 5620 C 4306 5620 4157 5734 4080 5807 C 3868 6008 3733 6249 3669 6540 C 3638 6679 3635 6949 3663 7080 C 3792 7683 4268 8128 4872 8209 C 4978 8223 5208 8214 5320 8191 z M 6818 5085 C 8100 4101 8546 3754 8533 3749 C 8523 3746 8192 3690 7798 3624 C 7286 3539 7080 3502 7080 3492 C 7080 3485 7289 3053 7545 2532 L 8010 1585 L 7588 1377 C 7357 1263 7166 1171 7165 1172 C 7164 1174 6952 1608 6694 2137 C 6436 2666 6221 3100 6217 3100 C 6211 3100 5201 2233 5073 2117 L 5050 2097 L 5050 4269 C 5050 6362 5051 6441 5068 6428 C 5078 6421 5866 5817 6818 5085 z" stroke-linecap="round" />
</g>
</svg>